<mxfile host="app.diagrams.net" modified="2020-12-20T05:20:37.657Z" agent="5.0 (Windows NT 10.0; Win64; x64) AppleWebKit/537.36 (KHTML, like Gecko) Chrome/87.0.4280.88 Safari/537.36" etag="tCcHRzKKsfLSZIRk-Csx" version="14.1.1" type="github">
  <diagram id="KNBxyKNMcaiC6pvvX9-u" name="第 1 页">
    <mxGraphModel dx="1502" dy="675" grid="1" gridSize="10" guides="1" tooltips="1" connect="1" arrows="1" fold="1" page="1" pageScale="1" pageWidth="827" pageHeight="1169" math="0" shadow="0">
      <root>
        <mxCell id="0" />
        <mxCell id="1" parent="0" />
        <mxCell id="F2lNqEc1MeJwCRNQFej_-10" value="" style="endArrow=classic;html=1;exitX=-0.015;exitY=0.167;exitDx=0;exitDy=0;exitPerimeter=0;entryX=1.01;entryY=0.169;entryDx=0;entryDy=0;entryPerimeter=0;" edge="1" parent="1">
          <mxGeometry width="50" height="50" relative="1" as="geometry">
            <mxPoint x="546" y="400" as="sourcePoint" />
            <mxPoint x="250" y="400.72" as="targetPoint" />
          </mxGeometry>
        </mxCell>
        <mxCell id="F2lNqEc1MeJwCRNQFej_-15" style="edgeStyle=orthogonalEdgeStyle;rounded=0;orthogonalLoop=1;jettySize=auto;html=1;entryX=0.5;entryY=1;entryDx=0;entryDy=0;" edge="1" parent="1" source="F2lNqEc1MeJwCRNQFej_-1" target="F2lNqEc1MeJwCRNQFej_-14">
          <mxGeometry relative="1" as="geometry">
            <mxPoint x="70" y="590" as="targetPoint" />
          </mxGeometry>
        </mxCell>
        <mxCell id="F2lNqEc1MeJwCRNQFej_-18" style="edgeStyle=orthogonalEdgeStyle;rounded=0;orthogonalLoop=1;jettySize=auto;html=1;entryX=0.5;entryY=1;entryDx=0;entryDy=0;" edge="1" parent="1" source="F2lNqEc1MeJwCRNQFej_-1" target="F2lNqEc1MeJwCRNQFej_-14">
          <mxGeometry relative="1" as="geometry">
            <mxPoint x="20" y="580" as="targetPoint" />
          </mxGeometry>
        </mxCell>
        <mxCell id="F2lNqEc1MeJwCRNQFej_-1" value="2. master醉酒数据的缓存，其实就是一些写命令" style="rounded=1;whiteSpace=wrap;html=1;align=center;fillColor=#f8cecc;strokeColor=#b85450;" vertex="1" parent="1">
          <mxGeometry x="90" y="180" width="160" height="360" as="geometry" />
        </mxCell>
        <mxCell id="F2lNqEc1MeJwCRNQFej_-2" value="" style="rounded=1;whiteSpace=wrap;html=1;fillColor=#f8cecc;strokeColor=#b85450;" vertex="1" parent="1">
          <mxGeometry x="550" y="180" width="160" height="360" as="geometry" />
        </mxCell>
        <mxCell id="F2lNqEc1MeJwCRNQFej_-3" value="" style="endArrow=classic;html=1;exitX=-0.015;exitY=0.167;exitDx=0;exitDy=0;exitPerimeter=0;entryX=1.01;entryY=0.169;entryDx=0;entryDy=0;entryPerimeter=0;" edge="1" parent="1" source="F2lNqEc1MeJwCRNQFej_-2" target="F2lNqEc1MeJwCRNQFej_-1">
          <mxGeometry width="50" height="50" relative="1" as="geometry">
            <mxPoint x="440" y="220" as="sourcePoint" />
            <mxPoint x="390" y="120" as="targetPoint" />
          </mxGeometry>
        </mxCell>
        <mxCell id="F2lNqEc1MeJwCRNQFej_-4" value="1. 连接断开" style="text;html=1;align=center;verticalAlign=middle;resizable=0;points=[];autosize=1;" vertex="1" parent="1">
          <mxGeometry x="350" y="220" width="80" height="20" as="geometry" />
        </mxCell>
        <mxCell id="F2lNqEc1MeJwCRNQFej_-6" value="" style="endArrow=classic;html=1;exitX=-0.015;exitY=0.167;exitDx=0;exitDy=0;exitPerimeter=0;entryX=1.01;entryY=0.169;entryDx=0;entryDy=0;entryPerimeter=0;" edge="1" parent="1">
          <mxGeometry width="50" height="50" relative="1" as="geometry">
            <mxPoint x="545.9999999999999" y="290" as="sourcePoint" />
            <mxPoint x="249.99999999999991" y="290.72" as="targetPoint" />
          </mxGeometry>
        </mxCell>
        <mxCell id="F2lNqEc1MeJwCRNQFej_-7" value="3. 重新连接master，建立socket长连接" style="edgeLabel;html=1;align=center;verticalAlign=middle;resizable=0;points=[];" vertex="1" connectable="0" parent="F2lNqEc1MeJwCRNQFej_-6">
          <mxGeometry x="0.1094" y="-4" relative="1" as="geometry">
            <mxPoint x="18.01" y="-6.4" as="offset" />
          </mxGeometry>
        </mxCell>
        <mxCell id="F2lNqEc1MeJwCRNQFej_-8" value="" style="endArrow=classic;html=1;exitX=-0.015;exitY=0.167;exitDx=0;exitDy=0;exitPerimeter=0;entryX=1.01;entryY=0.169;entryDx=0;entryDy=0;entryPerimeter=0;" edge="1" parent="1">
          <mxGeometry width="50" height="50" relative="1" as="geometry">
            <mxPoint x="549.9999999999999" y="350" as="sourcePoint" />
            <mxPoint x="253.99999999999991" y="350.72" as="targetPoint" />
          </mxGeometry>
        </mxCell>
        <mxCell id="F2lNqEc1MeJwCRNQFej_-9" value="4.psync（offset）" style="text;html=1;align=center;verticalAlign=middle;resizable=0;points=[];autosize=1;" vertex="1" parent="1">
          <mxGeometry x="335" y="330" width="110" height="20" as="geometry" />
        </mxCell>
        <mxCell id="F2lNqEc1MeJwCRNQFej_-11" value="5. slave的offset如果在repl backlog buffer中，&lt;br&gt;则master会将缓存中从slave之后的数据&lt;br&gt;一次性同步给slave节点，否则会全量同步" style="text;html=1;align=center;verticalAlign=middle;resizable=0;points=[];autosize=1;" vertex="1" parent="1">
          <mxGeometry x="270" y="370" width="260" height="50" as="geometry" />
        </mxCell>
        <mxCell id="F2lNqEc1MeJwCRNQFej_-12" value="" style="endArrow=classic;html=1;exitX=1.015;exitY=0.811;exitDx=0;exitDy=0;exitPerimeter=0;entryX=0;entryY=0.806;entryDx=0;entryDy=0;entryPerimeter=0;" edge="1" parent="1" source="F2lNqEc1MeJwCRNQFej_-1" target="F2lNqEc1MeJwCRNQFej_-2">
          <mxGeometry width="50" height="50" relative="1" as="geometry">
            <mxPoint x="280" y="460" as="sourcePoint" />
            <mxPoint x="542" y="480" as="targetPoint" />
          </mxGeometry>
        </mxCell>
        <mxCell id="F2lNqEc1MeJwCRNQFej_-13" value="6. master通过socket连接持续把&lt;br&gt;写命令给从节点，保证主从数据一致性" style="text;html=1;align=center;verticalAlign=middle;resizable=0;points=[];autosize=1;" vertex="1" parent="1">
          <mxGeometry x="290" y="440" width="220" height="30" as="geometry" />
        </mxCell>
        <mxCell id="F2lNqEc1MeJwCRNQFej_-14" value="repl_backLog&lt;br&gt;buffer" style="rounded=0;whiteSpace=wrap;html=1;fillColor=#d5e8d4;strokeColor=#82b366;" vertex="1" parent="1">
          <mxGeometry x="115" y="380" width="110" height="60" as="geometry" />
        </mxCell>
        <mxCell id="F2lNqEc1MeJwCRNQFej_-19" value="master" style="text;html=1;strokeColor=none;fillColor=none;align=center;verticalAlign=middle;whiteSpace=wrap;rounded=0;" vertex="1" parent="1">
          <mxGeometry x="150" y="200" width="40" height="20" as="geometry" />
        </mxCell>
        <mxCell id="F2lNqEc1MeJwCRNQFej_-20" value="slave" style="text;html=1;strokeColor=none;fillColor=none;align=center;verticalAlign=middle;whiteSpace=wrap;rounded=0;" vertex="1" parent="1">
          <mxGeometry x="610" y="190" width="40" height="20" as="geometry" />
        </mxCell>
      </root>
    </mxGraphModel>
  </diagram>
</mxfile>
